<svg id="_x31__px" height="512" viewBox="0 0 24 24" width="512" xmlns="http://www.w3.org/2000/svg"><path d="m16 24h-1.5c-.276 0-.5-.224-.5-.5s.224-.5.5-.5h1.5c.551 0 1-.448 1-1s-.449-1-1-1h-1.5c-.276 0-.5-.224-.5-.5v-3c0-.276.224-.5.5-.5h3c.276 0 .5.224.5.5s-.224.5-.5.5h-2.5v2h1c1.103 0 2 .897 2 2s-.897 2-2 2z"/><path d="m22.5 24h-1c-.827 0-1.5-.673-1.5-1.5v-4c0-.827.673-1.5 1.5-1.5h1c.827 0 1.5.673 1.5 1.5v4c0 .827-.673 1.5-1.5 1.5zm-1-6c-.276 0-.5.225-.5.5v4c0 .275.224.5.5.5h1c.276 0 .5-.225.5-.5v-4c0-.275-.224-.5-.5-.5z"/><path d="m10.5 21c-5.79 0-10.5-4.71-10.5-10.5s4.71-10.5 10.5-10.5 10.5 4.71 10.5 10.5c0 1.734-.407 3.378-1.208 4.885-.129.243-.432.339-.676.207-.244-.13-.336-.433-.207-.676.724-1.361 1.091-2.848 1.091-4.416 0-5.238-4.262-9.5-9.5-9.5s-9.5 4.262-9.5 9.5 4.262 9.5 9.5 9.5c.324 0 .639-.019.954-.048.283-.013.519.179.544.452.025.275-.177.519-.452.544-.345.031-.691.052-1.046.052z"/><path d="m10.5 18c-4.136 0-7.5-3.364-7.5-7.5s3.364-7.5 7.5-7.5 7.5 3.364 7.5 7.5c0 1.557-.467 3.04-1.352 4.289-.16.225-.472.278-.697.119s-.279-.472-.119-.697c.764-1.079 1.168-2.362 1.168-3.711 0-3.584-2.916-6.5-6.5-6.5s-6.5 2.916-6.5 6.5 2.916 6.5 6.5 6.5c.355 0 .656-.023.919-.072.275-.042.532.131.582.401.05.272-.13.532-.401.583-.323.059-.683.088-1.1.088z"/><path d="m10.5 15c-.276 0-.5-.224-.5-.5s.224-.5.5-.5c1.93 0 3.5-1.57 3.5-3.5 0-.276.224-.5.5-.5s.5.224.5.5c0 2.481-2.019 4.5-4.5 4.5z"/><path d="m6.5 11c-.276 0-.5-.224-.5-.5 0-2.481 2.019-4.5 4.5-4.5.276 0 .5.224.5.5s-.224.5-.5.5c-1.93 0-3.5 1.57-3.5 3.5 0 .276-.224.5-.5.5z"/><circle cx="10.5" cy="10.5" r="1"/></svg>