<?xml version="1.0" standalone="no"?>
<!DOCTYPE svg PUBLIC "-//W3C//DTD SVG 20010904//EN"
 "http://www.w3.org/TR/2001/REC-SVG-20010904/DTD/svg10.dtd">
<svg version="1.0" xmlns="http://www.w3.org/2000/svg"
 width="500.000000pt" height="739.000000pt" viewBox="0 0 500.000000 739.000000"
 preserveAspectRatio="xMidYMid meet">

<g transform="translate(0.000000,739.000000) scale(0.100000,-0.100000)"
fill="#000000" stroke="none">
<path d="M2265 7379 c-288 -35 -611 -153 -880 -320 -274 -171 -606 -455 -714
-612 -35 -51 -86 -156 -79 -162 2 -3 21 25 42 62 90 156 443 464 750 655 229
142 493 251 723 298 133 26 396 37 562 21 432 -40 906 -276 1362 -678 133
-117 203 -191 262 -277 23 -33 45 -65 49 -70 4 -6 10 -7 14 -4 3 4 -8 32 -26
63 -104 182 -353 414 -680 634 -306 206 -563 316 -865 372 -128 24 -397 33
-520 18z"/>
<path d="M4410 6178 c0 -7 12 -48 25 -91 31 -96 47 -205 39 -257 -6 -34 -14
-44 -54 -69 -41 -25 -48 -35 -54 -71 -9 -57 10 -197 41 -305 20 -65 27 -114
27 -176 l1 -87 -41 -48 c-22 -27 -46 -59 -53 -72 -7 -13 -17 -95 -22 -185 -10
-181 -19 -228 -55 -299 l-25 -49 31 -94 c16 -53 30 -104 30 -115 0 -27 -38
-50 -82 -50 -36 0 -38 -1 -38 -33 0 -21 -8 -41 -20 -52 -27 -25 -25 -43 10
-98 50 -78 70 -125 90 -202 22 -87 46 -137 93 -193 42 -50 51 -85 42 -155 -24
-177 -134 -385 -390 -737 -188 -259 -249 -374 -281 -534 -14 -69 -16 -114 -9
-306 5 -124 9 -256 9 -295 1 -55 8 -86 34 -147 17 -42 32 -88 32 -103 0 -32
18 -68 30 -60 5 3 19 36 31 73 18 58 22 111 33 392 l12 325 36 65 c20 36 46
93 59 128 13 34 27 62 30 62 3 0 -1 -53 -9 -117 -14 -116 -13 -120 14 -263 45
-235 32 -397 -52 -635 -54 -152 -53 -143 -16 -117 104 75 288 420 397 747 49
147 68 249 91 480 9 88 18 162 20 164 3 3 10 -1 16 -7 20 -20 60 -14 101 15
39 27 137 137 137 154 0 5 -36 9 -79 9 -76 0 -80 1 -105 30 -37 44 -40 82 -27
299 6 108 11 322 11 475 l0 279 101 194 c55 107 114 217 130 245 17 28 28 52
26 54 -2 3 -46 -23 -97 -56 -51 -34 -95 -59 -98 -56 -3 3 6 68 19 143 27 158
30 299 10 663 -32 590 -78 904 -160 1084 -29 64 -41 80 -41 54z"/>
<path d="M3890 6033 c0 -41 23 -132 85 -335 31 -101 58 -209 62 -240 l6 -57
-44 -3 -44 -3 1 -51 c1 -32 11 -73 26 -105 25 -54 74 -116 84 -106 3 3 -11 37
-31 77 -21 39 -35 74 -31 77 11 11 70 -25 130 -79 31 -27 60 -48 66 -46 16 5
-27 86 -65 121 -33 30 -36 38 -45 117 -11 95 -13 280 -4 304 16 43 46 0 88
-129 30 -91 38 -88 32 10 -7 108 -29 216 -53 262 -16 30 -235 213 -255 213 -5
0 -8 -12 -8 -27z"/>
<path d="M765 5889 c-50 -98 -155 -422 -142 -436 2 -2 12 18 22 44 l18 46 28
-31 c38 -43 56 -110 69 -260 6 -70 14 -138 17 -152 l5 -25 10 25 c15 36 24
818 10 832 -7 7 -18 -5 -37 -43z"/>
<path d="M387 5630 c-25 -100 -40 -305 -44 -605 -6 -354 3 -513 37 -668 11
-50 19 -91 17 -92 -1 0 -15 -7 -31 -13 -26 -12 -28 -16 -23 -51 2 -21 21 -62
41 -91 66 -96 72 -142 96 -745 6 -143 17 -323 25 -400 22 -201 11 -246 -62
-261 -25 -5 -34 -2 -47 17 -9 13 -16 36 -16 50 0 15 -11 41 -25 58 -23 27 -26
38 -24 108 0 43 -2 86 -6 96 -4 10 -28 34 -54 53 -43 34 -46 35 -49 15 -2 -12
8 -56 22 -99 14 -42 39 -131 56 -196 49 -195 92 -262 207 -328 28 -16 56 -34
61 -41 6 -7 15 -57 22 -112 38 -336 181 -733 345 -965 78 -109 246 -319 258
-320 15 0 6 110 -14 176 -37 122 -109 294 -201 485 -131 272 -193 492 -233
824 -22 184 -32 239 -64 335 -51 152 -49 142 -66 363 -13 162 -38 324 -71 451
-7 28 -6 29 22 21 57 -15 57 -15 70 67 6 42 20 97 29 122 l17 45 -45 93 c-67
136 -88 229 -125 554 -7 61 -20 104 -51 171 -22 49 -41 96 -41 102 0 7 11 26
24 42 32 38 40 97 33 229 -11 195 -77 565 -90 510z"/>
<path d="M3816 5564 c-4 -10 -34 -95 -67 -189 -33 -93 -76 -208 -95 -255 -41
-99 -120 -236 -143 -246 -9 -4 -200 -11 -426 -15 -228 -4 -483 -15 -575 -23
-217 -21 -405 -21 -511 0 -100 20 -290 22 -371 5 -157 -34 -15 -42 712 -43
322 0 706 5 854 11 148 6 271 9 274 6 7 -7 -137 -204 -161 -219 -12 -8 -40
-17 -62 -21 -68 -11 -267 -66 -294 -80 l-26 -14 33 -1 c18 0 97 14 174 31 77
17 142 28 145 25 3 -3 0 -26 -7 -51 -24 -86 9 -66 52 32 22 49 26 53 66 59 61
9 141 -2 303 -42 163 -40 189 -42 100 -9 -139 51 -222 69 -328 69 -57 0 -103
2 -103 6 0 7 23 41 89 134 l55 76 81 0 c128 0 295 12 295 22 0 4 -79 8 -176 8
l-175 0 46 56 c66 82 89 125 133 254 52 151 124 408 120 422 -3 7 -8 3 -12 -8z"/>
<path d="M2451 5255 c-1 -5 6 -43 14 -85 8 -41 18 -102 21 -135 l7 -60 10 37
c6 27 5 59 -6 110 -14 68 -44 156 -46 133z"/>
<path d="M2881 4640 c-38 -104 -62 -130 -156 -164 -17 -6 -12 -11 29 -26 27
-11 62 -31 77 -46 31 -30 33 -28 44 41 3 22 13 61 21 87 9 27 14 72 12 110
l-3 63 -24 -65z"/>
<path d="M1040 4680 c-72 -6 -97 -13 -157 -44 -38 -20 -83 -51 -99 -67 l-29
-30 60 36 c85 51 139 64 317 77 244 17 465 -5 801 -78 65 -15 120 -24 123 -22
7 7 -191 66 -312 93 -191 42 -455 55 -704 35z"/>
<path d="M999 4456 c-41 -14 -85 -44 -113 -75 -28 -31 -8 -26 59 17 60 37 61
37 165 37 116 -1 170 -11 440 -85 155 -42 337 -73 318 -55 -3 4 -55 17 -115
30 -59 13 -157 40 -218 60 -221 72 -448 103 -536 71z"/>
<path d="M611 4445 c-1 -23 73 -292 83 -302 15 -16 12 9 -14 112 -30 117 -69
223 -69 190z"/>
<path d="M2108 4414 c-5 -4 -8 -32 -8 -61 0 -119 -42 -191 -157 -267 l-41 -27
-119 10 c-65 6 -224 15 -353 20 -226 9 -240 11 -359 45 -156 45 -226 48 -270
11 -16 -14 -33 -36 -37 -48 -3 -12 -13 -37 -21 -55 -13 -26 -13 -38 -4 -58 16
-37 14 -59 -10 -80 -37 -33 -62 -102 -63 -175 0 -70 20 -119 50 -119 24 0 76
30 112 63 27 26 31 37 27 59 -6 24 -3 28 16 28 26 0 189 -77 189 -89 0 -23
-104 -80 -146 -81 -12 0 -27 -7 -35 -16 -19 -24 4 -34 81 -34 l64 0 59 62 c59
61 59 61 91 49 17 -8 42 -14 56 -15 23 -1 25 2 22 36 -3 34 -1 38 38 58 49 25
64 17 74 -35 4 -19 18 -48 32 -65 24 -27 31 -30 88 -30 81 0 145 38 178 105
25 52 19 74 -24 86 -45 12 -75 0 -82 -32 -10 -51 -56 -47 -76 7 -7 16 -20 23
-61 28 -79 11 -226 -3 -295 -27 -33 -11 -68 -18 -77 -14 -9 3 -37 47 -62 97
l-46 91 34 -6 c24 -5 37 -2 46 9 17 20 95 21 296 1 83 -8 153 -15 156 -15 3 0
16 -9 29 -20 32 -27 112 -50 179 -50 85 -1 188 -18 229 -39 20 -11 53 -36 72
-56 19 -20 52 -46 72 -57 21 -12 40 -29 43 -39 8 -23 -15 -75 -54 -123 -36
-45 -37 -49 -15 -70 21 -22 32 -20 71 10 49 37 61 70 73 189 10 113 6 173 -16
216 -13 26 -67 79 -100 97 -15 8 -13 16 20 70 21 33 42 77 47 99 16 72 6 277
-13 257z"/>
<path d="M3440 4373 c-19 -1 -84 -8 -145 -13 -60 -6 -166 -22 -235 -35 -69
-14 -143 -25 -166 -25 -62 0 -85 -38 -45 -74 19 -17 39 -7 26 13 -9 16 22 27
173 60 181 40 251 48 490 57 105 3 192 10 192 15 0 8 -211 10 -290 2z"/>
<path d="M20 4278 c-30 -71 -23 -119 34 -232 l46 -91 3 -260 c2 -176 7 -269
15 -289 7 -16 16 -26 20 -22 4 4 9 115 12 246 3 131 8 242 12 246 23 22 80
-81 109 -196 l20 -78 -21 -58 c-54 -150 -53 -170 17 -214 56 -36 49 -43 104
111 l39 110 -100 199 c-56 109 -142 265 -193 347 -79 128 -91 154 -91 191 1
23 0 42 -1 42 -2 0 -13 -23 -25 -52z"/>
<path d="M4871 4245 c-110 -114 -141 -165 -141 -228 0 -59 -41 -185 -103 -319
l-45 -96 33 -115 33 -115 -40 -124 c-22 -67 -40 -145 -41 -172 -2 -41 2 -51
24 -68 24 -18 30 -19 55 -7 18 9 37 32 50 59 12 25 44 90 72 145 71 142 82
187 92 365 4 85 13 171 19 190 15 48 14 133 -4 205 -8 33 -14 76 -14 95 l1 35
13 -30 c12 -27 31 -141 52 -315 l8 -65 30 85 c30 84 30 88 29 280 0 185 -11
280 -33 280 -5 0 -45 -38 -90 -85z"/>
<path d="M2492 4138 c20 -57 40 -79 124 -135 78 -51 123 -97 109 -111 -4 -4
-75 -7 -158 -8 -118 -1 -173 -6 -247 -23 -52 -12 -96 -23 -98 -25 -11 -12 116
-17 271 -10 l180 7 -6 -29 c-8 -37 -26 -387 -35 -672 l-7 -224 65 -94 c75
-110 78 -132 35 -219 -32 -67 -142 -183 -197 -208 -67 -32 -145 -17 -291 54
-80 40 -84 40 -162 35 -129 -10 -158 13 -180 147 -9 54 -25 35 -25 -30 0 -69
20 -111 85 -181 l51 -55 104 -8 c143 -12 163 -16 242 -51 l70 -31 65 32 c76
37 96 34 123 -19 25 -49 35 -55 62 -36 12 9 30 16 40 16 13 0 18 8 18 25 0 34
17 32 81 -13 30 -21 59 -41 65 -45 7 -4 22 13 38 47 18 37 42 65 79 92 28 22
63 57 77 78 l24 38 88 -94 c48 -51 87 -88 88 -82 0 15 -53 96 -120 184 -32 41
-76 114 -98 161 -38 80 -131 201 -132 171 0 -7 15 -43 34 -80 43 -86 57 -137
50 -184 l-7 -38 -79 0 c-79 0 -80 1 -74 23 25 84 28 279 5 293 -5 3 -9 12 -9
21 0 12 9 14 49 8 l48 -6 7 47 c3 26 6 78 6 116 0 65 2 72 30 98 l30 28 -59
83 c-58 81 -141 226 -141 247 0 6 15 12 32 14 49 5 46 28 -11 93 -54 62 -59
80 -37 124 20 38 92 101 116 101 11 0 34 -13 52 -29 l33 -30 -33 -34 -33 -34
47 -7 c56 -7 194 -8 194 -1 0 3 -13 24 -30 47 -39 54 -40 92 -1 116 l29 18
-29 16 c-56 33 -35 44 146 77 291 54 422 58 439 15 13 -35 6 -91 -14 -109 -18
-16 -27 -17 -61 -8 -22 6 -41 8 -43 4 -2 -3 -7 -28 -11 -56 -4 -27 -13 -60
-21 -72 -16 -26 -4 -33 56 -33 43 0 70 -8 70 -21 0 -4 -17 -20 -37 -34 l-38
-25 39 0 c45 0 44 -15 -3 -47 -68 -46 -135 -63 -274 -69 -144 -6 -177 -10
-177 -23 0 -12 327 -22 400 -11 45 6 77 18 107 40 24 16 48 30 53 30 20 0 9
-48 -21 -88 -25 -34 -29 -45 -19 -57 15 -18 79 -37 95 -27 17 9 151 171 167
200 9 17 9 28 1 41 -11 17 -6 19 45 24 75 7 107 22 142 71 l30 40 0 -61 c0
-64 -21 -194 -45 -277 -42 -143 -169 -253 -370 -322 -76 -26 -90 -28 -260 -28
-99 0 -198 3 -220 7 l-40 6 50 -25 c50 -25 51 -25 240 -20 215 7 300 21 395
68 185 91 272 283 274 608 1 90 -4 160 -11 186 -18 59 -87 160 -121 178 -34
17 -193 50 -319 66 -128 16 -446 14 -593 -4 -132 -16 -260 -45 -307 -69 -46
-24 -91 -30 -179 -22 l-83 7 -56 69 c-62 76 -92 91 -73 37z"/>
<path d="M3445 3851 c-43 -5 -52 -10 -64 -36 -24 -52 -40 -53 -65 -3 -13 26
-50 35 -72 18 -31 -27 1 -136 47 -161 34 -18 144 -7 176 17 59 44 103 145 72
165 -15 9 -16 9 -94 0z"/>
<path d="M1784 3768 c4 -13 10 -42 13 -64 4 -35 2 -44 -18 -57 -12 -9 -19 -20
-15 -24 10 -11 158 -17 202 -8 l36 6 -23 26 c-30 33 -177 143 -191 143 -6 0
-8 -9 -4 -22z"/>
<path d="M1101 3564 c-44 -49 -85 -113 -78 -120 10 -10 27 7 27 27 0 36 19 10
36 -49 19 -64 77 -132 113 -132 11 0 21 2 21 5 0 3 -18 28 -39 55 -39 49 -69
116 -57 127 3 4 24 -8 46 -26 78 -63 192 -106 261 -99 54 5 39 22 -26 30 -77
9 -138 31 -197 71 -57 38 -79 73 -58 88 25 17 124 3 189 -26 57 -26 68 -28
149 -22 86 7 228 40 246 58 13 12 9 12 -124 -11 -127 -22 -128 -22 -288 26
-149 45 -181 45 -221 -2z"/>
<path d="M2073 3398 c-11 -13 -34 -45 -52 -72 -83 -126 -242 -275 -342 -320
-98 -45 -221 -69 -359 -70 -132 0 -183 10 -303 60 -122 52 -151 77 -200 172
-24 48 -54 113 -67 145 -23 59 -42 85 -33 45 16 -70 49 -171 72 -223 54 -120
100 -150 316 -212 88 -24 116 -28 235 -27 318 1 494 103 700 407 33 49 60 95
60 103 0 19 -3 18 -27 -8z"/>
<path d="M1790 3357 c-75 -46 -113 -57 -185 -57 -64 0 -125 -15 -125 -31 0 -5
13 -9 29 -9 50 0 44 -18 -16 -50 l-58 -31 40 6 c51 8 142 39 219 74 87 40 198
131 159 131 -5 0 -33 -15 -63 -33z"/>
<path d="M3175 3370 c11 -18 199 -138 259 -166 63 -29 124 -31 176 -4 37 19
65 51 54 63 -3 2 -26 -2 -52 -10 -86 -27 -153 -14 -283 55 -123 65 -167 82
-154 62z"/>
<path d="M340 3261 c0 -35 51 -195 77 -243 35 -64 59 -85 37 -32 -9 22 -27 80
-39 129 -12 50 -30 107 -38 128 -17 39 -37 50 -37 18z"/>
<path d="M1807 2678 c-14 -18 -57 -96 -96 -174 -89 -177 -122 -221 -222 -290
-124 -87 -85 -76 55 16 182 119 224 169 251 302 9 40 26 95 40 121 29 57 29
57 11 57 -8 0 -26 -15 -39 -32z"/>
<path d="M1065 2269 c-9 -106 7 -232 54 -409 22 -85 49 -211 60 -280 25 -161
69 -372 81 -384 24 -24 42 105 27 202 -5 33 -2 53 13 83 26 50 26 119 -1 216
-20 72 -21 86 -10 182 6 57 9 107 6 109 -8 9 -43 -28 -56 -60 l-12 -30 -13 24
c-7 13 -38 109 -69 213 -31 105 -61 194 -65 199 -4 4 -11 -25 -15 -65z"/>
<path d="M2753 2253 c9 -49 -16 -71 -43 -38 -11 13 -15 13 -39 -4 -14 -10 -43
-24 -64 -30 -21 -7 -51 -24 -68 -39 -25 -21 -32 -23 -40 -11 -5 8 -9 22 -9 32
0 19 -8 21 -29 8 -8 -5 -34 -3 -64 5 -28 7 -54 11 -58 9 -3 -3 -15 -34 -24
-70 -10 -36 -21 -68 -26 -70 -4 -3 -14 12 -22 33 -33 83 -114 145 -157 122
-11 -6 -20 -15 -20 -20 0 -21 -16 -9 -27 20 -6 17 -18 30 -25 30 -8 0 -41 -21
-73 -46 l-59 -46 -9 26 c-5 14 -15 26 -22 26 -15 0 -113 -79 -160 -130 -45
-48 -63 -55 -87 -33 -20 18 -21 17 -69 -36 -111 -120 -185 -256 -176 -324 4
-32 -2 -61 -29 -129 -31 -79 -34 -97 -34 -187 0 -116 -22 -300 -50 -419 -11
-46 -18 -87 -15 -92 3 -4 34 -5 70 -2 75 6 69 20 55 -136 -10 -115 -7 -134 23
-130 15 2 26 17 39 53 10 27 34 72 53 100 27 39 31 51 19 53 -10 3 -13 10 -8
24 11 36 102 189 145 245 38 49 64 116 53 135 -3 4 -16 8 -29 8 -32 0 -44 24
-34 69 4 20 15 74 24 121 27 134 26 133 70 149 32 12 138 16 550 18 281 2 564
0 630 -4 195 -13 313 2 377 49 42 30 161 -68 192 -160 9 -26 21 -90 27 -142 9
-84 16 -104 52 -166 28 -48 56 -82 84 -100 47 -32 50 -40 28 -64 -12 -13 -12
-23 -3 -53 6 -20 15 -37 19 -37 5 0 20 20 35 45 68 116 84 271 39 379 -13 33
-22 70 -19 82 3 13 -6 45 -26 84 -46 92 -104 225 -150 346 -47 125 -106 231
-151 268 -41 35 -59 34 -59 -4 0 -16 -4 -30 -9 -30 -4 0 -28 16 -52 35 -29 23
-63 38 -99 46 -192 38 -345 90 -406 138 -36 28 -47 27 -41 -6z"/>
<path d="M2483 1354 c-30 -32 -38 -36 -53 -26 -14 9 -20 8 -23 -1 -3 -9 -17
-6 -49 11 -53 26 -76 27 -125 7 -56 -24 -100 -61 -149 -127 -60 -83 -65 -104
-47 -245 16 -131 11 -160 -32 -189 -25 -16 -27 -16 -51 7 -40 37 -48 59 -46
122 2 54 1 57 -21 57 -25 0 -53 -26 -84 -78 l-20 -32 -6 76 c-8 89 -10 94 -44
94 -52 0 -143 -133 -149 -218 -2 -35 -14 -61 -51 -116 -39 -57 -48 -78 -47
-111 1 -54 52 -152 103 -198 39 -35 54 -41 93 -38 9 1 25 -11 34 -26 29 -47
67 -83 86 -83 10 0 18 5 18 10 0 23 27 7 88 -52 56 -54 66 -60 76 -46 15 20
23 15 126 -62 125 -94 124 -94 153 -75 17 11 57 18 119 22 51 3 107 11 123 18
25 10 39 9 80 -5 l50 -17 26 31 27 31 43 -15 c30 -10 48 -24 57 -42 16 -35 35
-35 107 -3 48 21 58 30 75 70 21 49 27 53 44 30 9 -13 20 -1 63 64 29 44 64
88 78 97 24 15 27 15 44 0 32 -29 61 -20 78 24 14 36 20 40 50 40 22 0 33 5
33 14 0 26 20 28 54 8 19 -11 37 -18 40 -15 3 4 6 31 6 60 0 67 11 90 49 98
30 6 44 27 72 108 20 56 35 65 64 37 55 -52 57 28 5 171 -31 82 -38 129 -20
129 21 0 8 25 -37 75 -27 28 -70 77 -96 108 -27 31 -52 57 -56 57 -5 0 -12
-15 -15 -34 l-6 -33 -45 10 c-58 13 -68 3 -27 -29 40 -32 41 -63 4 -105 l-28
-32 -52 13 c-47 12 -53 12 -72 -5 -11 -10 -25 -36 -32 -57 l-11 -39 -38 37
c-28 27 -40 33 -43 23 -3 -8 -12 -40 -20 -71 -9 -31 -21 -60 -28 -64 -20 -12
-46 33 -62 109 -28 125 -64 213 -107 257 -30 31 -39 48 -39 74 0 25 -7 40 -27
55 -32 26 -136 57 -216 66 -57 7 -59 6 -94 -31z m-121 -521 c4 -60 18 -159 32
-221 14 -61 26 -113 26 -117 0 -4 -12 8 -27 25 -54 64 -105 59 -141 -16 -12
-24 -26 -44 -31 -44 -5 0 -12 20 -15 45 -8 53 -23 57 -87 24 -23 -11 -43 -18
-46 -16 -6 7 42 127 94 231 46 92 150 212 176 204 8 -3 14 -41 19 -115z m257
-10 c32 -38 107 -173 96 -173 -3 0 -19 15 -35 33 -19 20 -30 27 -30 17 0 -8
-5 -33 -11 -54 -14 -50 -22 -38 -49 75 -22 91 -25 139 -11 139 5 0 23 -17 40
-37z"/>
</g>
</svg>
